# AST/ASF file generated using VICON BodyLanguage
# -----------------------------------------------
:version 1.10
:name VICON
:units
  mass 1.0
  length 0.45
  angle deg
:documentation
   .ast/.asf automatically generated from VICON data using
   VICON BodyBuilder and BodyLanguage model FoxedUp or BRILLIANT.MOD
:root
   order TX TY TZ RX RY RZ
   axis XYZ
   position 0 0 0  
   orientation 0 0 0 
:bonedata
  begin
     id 1 
     name lhipjoint
     direction 0.521452 -0.77106 0.36545 
     length 2.0933 
     axis 0 0 0  XYZ
  end
  begin
     id 2 
     name lfemur
     direction 0.34202 -0.939693 0  
     length 6.83441  
     axis 0 0 20  XYZ
    dof rx ry rz
    limits (-160.0 20.0)
           (-70.0 70.0)
           (-60.0 70.0)
  end
  begin
     id 3 
     name ltibia
     direction 0.34202 -0.939693 0   
     length 7.28749   
     axis 0 0 20   XYZ
    dof rx
    limits (-10.0 170.0)
  end
  begin
     id 4 
     name lfoot
     direction 0.100608 -0.276418 0.955757   
     length 1.52195   
     axis -90 7.62852e-016 20   XYZ
    dof rx rz
    limits (-45.0 90.0)
           (-70.0 20.0)
  end
  begin
     id 5 
     name ltoes
     direction 1.53558e-011 -4.21907e-011 1   
     length 0.770459   
     axis -90 7.62852e-016 20   XYZ
    dof rx
    limits (-90.0 20.0)
  end
  begin
     id 6 
     name rhipjoint
     direction -0.488071 -0.788702 0.373812   
     length 2.04648  
     axis 0 0 0  XYZ 
  end
  begin
     id 7 
     name rfemur
     direction -0.34202 -0.939693 0   
     length 6.92583   
     axis 0 0 -20   XYZ
    dof rx ry rz
    limits (-160.0 20.0)
           (-70.0 70.0)
           (-70.0 60.0)
  end
  begin
     id 8 
     name rtibia
     direction -0.34202 -0.939693 0   
     length 7.41043   
     axis 0 0 -20   XYZ
    dof rx
    limits (-10.0 170.0)
 end
 begin
     id 9 
     name rfoot
     direction -0.0784433 -0.215521 0.973343   
     length 1.67708  
     axis -90 -7.62852e-016 -20   XYZ
    dof rx rz
    limits (-45.0 90.0)
           (-20.0 70.0)
  end
  begin
     id 10 
     name rtoes
     direction -1.53551e-011 -4.21842e-011 1   
     length 0.849787   
     axis -90 -7.62852e-016 -20   XYZ
    dof rx
    limits (-90.0 20.0)
  end
  begin
     id 11 
     name lowerback
     direction -0.0122332 0.997575 -0.0685192   
     length 1.98724   
     axis 0 0 0   XYZ
    dof rx ry rz
    limits (-20.0 45.0)
           (-30.0 30.0)
           (-30.0 30.0)
  end
  begin
     id 12 
     name upperback
     direction 0.0182347 0.999724 -0.0148421   
     length 1.99029   
     axis 0 0 0   XYZ
    dof rx ry rz
    limits (-20.0 45.0)
           (-30.0 30.0)
           (-30.0 30.0)
  end
  begin
     id 13 
     name thorax
     direction 0.0242908 0.99956 0.0170184   
     length 1.99573   
     axis 0 0 0   XYZ
    dof rx ry rz
    limits (-20.0 45.0)
           (-30.0 30.0)
           (-30.0 30.0)
  end
  begin
     id 14 
     name lowerneck
     direction 0.0654488 0.985533 0.156338   
     length 1.4285   
     axis 0 0 0   XYZ
    dof rx ry rz
    limits (-20.0 45.0)
           (-30.0 30.0)
           (-30.0 30.0)
  end
  begin
     id 15 
     name upperneck
     direction -0.02953 0.998556 -0.0448842   
     length 1.44709   
     axis 0 0 0   XYZ
    dof rx ry rz
    limits (-20.0 45.0)
           (-30.0 30.0)
           (-30.0 30.0)
  end
  begin
     id 16
     name head
     direction -0.0155588 0.999386 -0.0314063  
     length 1.44689  
     axis 0 0 0   XYZ
    dof rx ry rz
    limits (-20.0 45.0)
           (-30.0 30.0)
           (-30.0 30.0)
  end
  begin
     id 17 
     name lclavicle
     direction 0.968229 0.236071 -0.0824755  
     length 3.60593  
     axis 0 0 0   XYZ
    dof ry rz
    limits (-20.0 10.0)
           (0.0 20.0)
  end
  begin
     id 18 
     name lhumerus
     direction 1 -4.48968e-011 7.8138e-029   
     length 5.06035   
     axis 180 -30 -90   XYZ
    dof rx ry rz
    limits (-60.0 90.0)
           (-90.0 90.0)
           (-90.0 90.0)
  end
  begin
     id 19
     name lradius
     direction 1 -4.48967e-011 9.02887e-028   
     length 3.1478   
     axis 180 -30 -90   XYZ
    dof rx
    limits (-10.0 170.0)
  end
  begin
     id 20
     name lwrist
     direction 1 -4.48961e-011 7.20928e-028   
     length 1.5739   
     axis -5.52449e-016 90 90   XYZ
    dof ry
    limits (-180.0 0.0)
 end
  begin
     id 21 
     name lhand
     direction 1 -4.48972e-011 1.44186e-027   
     length 0.606747   
     axis -9.20027e-016 90 90   XYZ
    dof rx rz
    limits (-90.0 90.0)
           (-45.0 45.0)
  end
  begin
     id 22 
     name lfingers
     direction 1 -4.48943e-011 2.88371e-027   
     length 0.489175   
     axis -1.84005e-015 90 90   XYZ
    dof rx
    limits (0.0 90.0)
  end
  begin
     id 23
     name lthumb
     direction 0.707107 -6.34917e-011 0.707107   
     length 0.70236   
     axis -90 45 2.85299e-015   XYZ
    dof rx rz
    limits (-45.0 45.0)
           (-45.0 45.0)
  end
  begin
     id 24 
     name rclavicle
     direction -0.978165 0.207816 0.0022268   
     length 3.35425  
     axis 0 0 0   XYZ 
    dof ry rz
    limits (-10.0 20.0)
           (-20.0 0.0)
  end
  begin
     id 25 
     name rhumerus
     direction -1 -4.48964e-011 -4.02159e-027  
     length 5.12273   
     axis 180 30 90   XYZ
    dof rx ry rz
    limits (-90.0 60.0)
           (-90.0 90.0)
           (-90.0 90.0)
  end
  begin
     id 26 
     name rradius
     direction -1 -4.48966e-011 1.62746e-027   
     length 3.422   
     axis 180 30 90   XYZ
    dof rx
    limits (-10.0 170.0)
  end
  begin
     id 27 
     name rwrist
     direction -1 -4.4896e-011 7.20928e-028   
     length 1.711   
     axis -5.52449e-016 -90 -90   XYZ
    dof ry
    limits (-180.0 0.0)
  end
  begin
     id 28
     name rhand
     direction -1 -4.48979e-011 1.44186e-027   
     length 0.704599   
     axis -9.20027e-016 -90 -90   XYZ
    dof rx rz
    limits (-90.0 90.0)
           (-45.0 45.0)
  end
  begin
     id 29
     name rfingers
     direction -1 -4.48962e-011 2.88371e-027   
     length 0.568066   
     axis -1.84005e-015 -90 -90   XYZ
    dof rx
    limits (0.0 90.0)
  end
  begin
     id 30
     name rthumb
     direction -0.707107 -6.34949e-011 0.707107   
     length 0.815633   
     axis -90 -45 -2.85299e-015   XYZ
    dof rx rz
    limits (-45.0 45.0)
           (-45.0 45.0)
  end
:hierarchy
  begin
    root lhipjoint rhipjoint lowerback
    lhipjoint lfemur
    lfemur ltibia
    ltibia lfoot
    lfoot ltoes
    rhipjoint rfemur
    rfemur rtibia
    rtibia rfoot
    rfoot rtoes
    lowerback upperback
    upperback thorax
    thorax lowerneck lclavicle rclavicle
    lowerneck upperneck
    upperneck head
    lclavicle lhumerus
    lhumerus lradius
    lradius lwrist
    lwrist lhand lthumb
    lhand lfingers
    rclavicle rhumerus
    rhumerus rradius
    rradius rwrist
    rwrist rhand rthumb
    rhand rfingers
  end

#!OML:ASF Z:\Project 1\Capture day 1\Session 1\Male1.ASF
:FULLY-SPECIFIED
:DEGREES
42
root 10.9122 16.2024 3.84778 -175.349 -3.15293 176.748
lowerback -5.01593 -1.75153 -2.94908
upperback -0.109257 -2.17663 -0.535489
thorax 2.7877 -1.13125 0.939848
lowerneck -6.54024 -1.47802 1.4881
upperneck 4.29942 -2.21611 2.83172
head 2.51152 -0.958735 0.5574
rclavicle 2.98954e-014 1.19271e-015
rhumerus -26.9446 -3.98619 -84.5125
rradius 22.4478
rwrist 13.942
rhand -12.9337 32.8269
rfingers 7.12502
rthumb 13.1571 3.26198
lclavicle 2.98954e-014 1.19271e-015
lhumerus -25.6324 19.5612 81.8674
lradius 11.7568
lwrist -21.6069
lhand -12.1242 47.3357
lfingers 7.12502
lthumb 13.9373 76.8486
rfemur -15.0746 0.263583 5.91504
rtibia 42.4607
rfoot -6.74405 -14.3405
rtoes 5.5209
lfemur -6.92031 5.00675 -24.8718
ltibia 25.0757
lfoot -22.2932 -5.88561
ltoes 39.9438
43
root 10.8953 16.1992 3.83649 -175.324 -3.19727 176.656
lowerback -4.84357 -2.00272 -3.64274
upperback -0.185383 -2.48662 -0.172283
thorax 2.67095 -1.29287 1.68464
lowerneck -6.43882 -1.37843 1.57248
upperneck 4.23874 -2.06876 2.30065
head 2.4624 -0.909076 0.379573
rclavicle 1.96424e-014 4.37326e-015
rhumerus -27.0131 -2.5236 -84.5487
rradius 23.179
rwrist 13.5581
rhand -12.5356 33.235
rfingers 7.12502
rthumb 13.5408 3.69528
lclavicle 1.96424e-014 4.37326e-015
lhumerus -25.8867 19.4888 82.072
lradius 11.6622
lwrist -20.8335
lhand -12.5377 47.767
lfingers 7.12502
lthumb 13.5388 77.3069
rfemur -15.8248 0.457238 5.85196
rtibia 43.7305
rfoot -6.00339 -14.2157
rtoes 7.62979
lfemur -6.81208 5.06263 -25.0614
ltibia 24.8755
lfoot -22.2148 -5.64093
ltoes 38.8106
44
root 10.8774 16.2014 3.8251 -175.311 -3.22951 176.69
lowerback -4.83408 -2.11277 -3.89302
upperback -0.129635 -2.61987 0.022287
thorax 2.75159 -1.36407 2.01359
lowerneck -6.51063 -1.40076 1.5762
upperneck 4.12334 -2.08928 2.0293
head 2.43337 -0.932222 0.29113
rclavicle -2.1798e-014 -1.15295e-014
rhumerus -26.9555 -1.51909 -84.7557
rradius 23.8953
rwrist 12.8188
rhand -12.3882 33.5391
rfingers 7.12502
rthumb 13.6829 4.00892
lclavicle -2.1798e-014 -1.15295e-014
lhumerus -25.9713 19.7467 81.9609
lradius 11.5574
lwrist -21.1138
lhand -12.7819 47.7565
lfingers 7.12502
lthumb 13.3035 77.3118
rfemur -16.5698 0.129997 5.93779
rtibia 44.9703
rfoot -5.30672 -13.7441
rtoes 7.98744
lfemur -6.74011 5.13096 -25.1091
ltibia 24.7436
lfoot -22.1843 -5.45464
ltoes 37.5376
45
root 10.8554 16.2035 3.81166 -175.271 -3.2704 176.69
lowerback -4.84822 -2.1863 -3.96913
upperback -0.112939 -2.71369 0.124961
thorax 2.7916 -1.41269 2.15362
lowerneck -6.62334 -1.40599 1.62601
upperneck 4.12229 -2.09053 1.67348
head 2.44857 -0.946028 0.168095
rclavicle 1.81018e-014 3.97569e-015
rhumerus -27.0194 -0.391486 -85.101
rradius 24.7259
rwrist 11.7679
rhand -12.6395 33.5362
rfingers 7.12502
rthumb 13.4407 3.98984
lclavicle 1.81018e-014 3.97569e-015
lhumerus -26.237 21.0357 81.4083
lradius 11.3451
lwrist -22.7083
lhand -12.7997 47.5832
lfingers 7.12502
lthumb 13.2863 77.1397
rfemur -17.3031 -0.364976 6.00306
rtibia 46.1347
rfoot -4.68992 -13.3545
rtoes 7.86465
lfemur -6.70144 5.12802 -25.2047
ltibia 24.661
lfoot -22.2256 -5.28876
ltoes 36.9412
46
root 10.8366 16.2016 3.79941 -175.241 -3.39482 176.602
lowerback -4.83599 -2.30335 -4.07452
upperback -0.0904166 -2.864 0.152541
thorax 2.82502 -1.4898 2.2289
lowerneck -6.21096 -1.39738 1.0953
upperneck 3.63005 -2.03489 2.12155
head 2.22091 -0.920673 0.408087
rclavicle -8.26199e-015 -4.17448e-015
rhumerus -27.047 0.538551 -85.4179
rradius 25.5325
rwrist 10.9057
rhand -12.9179 33.6212
rfingers 7.12502
rthumb 13.1723 4.05735
lclavicle -8.26199e-015 -4.17448e-015
lhumerus -26.3957 22.1169 80.9469
lradius 11.0787
lwrist -23.9633
lhand -12.3736 47.4125
lfingers 7.12502
lthumb 13.697 76.9418
rfemur -18.002 -0.584001 5.94389
rtibia 47.2484
rfoot -4.44688 -13.2228
rtoes 8.87166
lfemur -6.61968 5.00486 -25.3785
ltibia 24.5459
lfoot -22.2256 -5.11327
ltoes 36.7329
47
root 10.8234 16.1935 3.78718 -175.308 -3.47811 176.564
lowerback -4.76009 -2.3488 -4.10523
upperback -0.0304716 -2.92313 0.0985787
thorax 2.84732 -1.52035 2.18731
lowerneck -6.14368 -1.41871 1.10934
upperneck 3.42682 -2.0598 2.18782
head 2.14232 -0.9331 0.426579
rclavicle 2.33945e-014 5.76476e-015
rhumerus -27.092 0.970094 -85.7324
rradius 26.2925
rwrist 10.3529
rhand -13.5418 33.6832
rfingers 7.12502
rthumb 12.5709 4.08137
lclavicle 2.33945e-014 5.76476e-015
lhumerus -26.5013 23.1252 80.3254
lradius 10.8067
lwrist -25.4036
lhand -11.8287 47.3675
lfingers 7.12502
lthumb 14.222 76.8605
rfemur -18.5676 -0.469411 5.85832
rtibia 48.2165
rfoot -4.93 -13.1178
rtoes 12.8593
lfemur -6.43376 5.05285 -25.4659
ltibia 24.4327
lfoot -22.2075 -5.07349
ltoes 36.4729
48
root 10.807 16.1922 3.76961 -175.431 -3.37763 176.652
lowerback -4.68816 -2.30387 -3.99676
upperback 0.0253154 -2.86918 0.0465847
thorax 2.85271 -1.49219 2.07901
lowerneck -6.00254 -1.48591 1.48054
upperneck 3.15446 -2.15879 1.98136
head 2.01983 -0.987095 0.296185
rclavicle 2.33448e-014 -1.59028e-015
rhumerus -27.2348 1.36442 -86.0947
rradius 27.1393
rwrist 9.89193
rhand -14.5159 33.4792
rfingers 7.12502
rthumb 11.6316 3.82209
lclavicle 2.33448e-014 -1.59028e-015
lhumerus -26.7053 23.8125 79.6661
lradius 10.5904
lwrist -26.5453
lhand -11.779 47.2176
lfingers 7.12502
lthumb 14.2699 76.7074
rfemur -19.1269 -0.749252 6.08925
rtibia 49.1288
rfoot -4.81997 -13.0385
rtoes 12.1463
lfemur -6.1837 5.23901 -25.4425
ltibia 24.3338
lfoot -22.1902 -5.01675
ltoes 36.4259
